<?xml version="1.0" encoding="UTF-8"?>
<!DOCTYPE svg PUBLIC "-//W3C//DTD SVG 1.1//EN" "http://www.w3.org/Graphics/SVG/1.1/DTD/svg11.dtd">
<!-- Creator: CorelDRAW 2021 (64 Bit) -->
<svg xmlns="http://www.w3.org/2000/svg" xml:space="preserve" width="255.728mm" height="33.8995mm" version="1.1" style="shape-rendering:geometricPrecision; text-rendering:geometricPrecision; image-rendering:optimizeQuality; fill-rule:evenodd; clip-rule:evenodd"
viewBox="0 0 8998.67 1192.87"
 xmlns:xlink="http://www.w3.org/1999/xlink"
 xmlns:xodm="http://www.corel.com/coreldraw/odm/2003">
 <defs>
  <style type="text/css">
   <![CDATA[
    .fil0 {fill:#62210F;fill-rule:nonzero}
   ]]>
  </style>
 </defs>
 <g id="Camada_x0020_1">
  <metadata id="CorelCorpID_0Corel-Layer"/>
  <path class="fil0" d="M2426.37 919.05c50.24,-200.96 25.55,-564.5 25.55,-779.91l86.66 0 470.09 684.89c-2.26,-211.89 -6.53,-407.51 -8.99,-684.89l83.28 0c-51.75,200.5 -26.67,564.06 -26.67,779.91l-98.88 0 -455.94 -692.74c3,205.15 12.83,470.32 14.35,694.1l-89.46 -1.35zm2137.52 16.67c-64.43,0 -115.54,-17.96 -153.31,-53.88 -37.77,-35.92 -56.66,-83.14 -56.66,-141.65 0,-88.13 40.55,-158.13 121.65,-209.97 81.1,-51.85 188.68,-93.32 322.74,-124.43 0,-44.44 -9.37,-79.49 -32.22,-101.1 -54.24,-51.29 -151.49,-25.96 -213.31,1.67 -45.55,20.36 -82.96,56.1 -117.77,96.1l-22.22 -85.54c40,-18.52 82.95,-33.14 128.87,-43.89 95.58,-22.35 220.54,-29.53 303.3,31.11 42.95,31.48 64.43,81.66 64.43,150.54l0 464.39 -111.1 0 0 -98.88c-32.59,35.55 -69.62,63.7 -111.1,84.43 -41.48,20.74 -82.58,31.11 -123.32,31.11zm43.33 -35.55c101.14,-17.81 132.87,-66.91 191.09,-130.26l0 -338.39c-119.25,25.92 -204.61,53.88 -256.08,104.25 -51.47,50.36 -77.21,112.95 -77.21,187.76 0,57.03 13.34,100.73 40,131.09 26.67,30.37 61.36,52.74 102.21,45.55zm177.66 -899.85l-163.23 189.84 -73.17 2.01 136.55 -192.16 99.85 0.31zm394.49 918.74l-111.1 0 0 -779.91 111.1 0 0 779.91zm216.64 -711.02c-17.03,0 -31.66,-6.11 -43.88,-18.33 -12.22,-12.22 -18.33,-26.85 -18.33,-43.88 0,-17.03 6.11,-31.66 18.33,-43.88 12.22,-12.22 26.85,-18.33 43.88,-18.33 17.04,0 31.66,6.11 43.89,18.33 12.22,12.22 18.33,26.85 18.33,43.88 0,17.03 -6.11,31.66 -18.33,43.88 -12.22,12.22 -26.85,18.33 -43.89,18.33zm55.55 711.02l-111.1 0 0 -642.15 111.1 0 0 642.15zm317.74 16.67c-64.43,0 -115.54,-17.96 -153.32,-53.88 -37.77,-35.92 -56.66,-83.14 -56.66,-141.65 0,-88.13 40.55,-158.13 121.65,-209.97 81.1,-51.84 188.36,-107.13 322.42,-138.24 0,-44.44 -9.03,-65.72 -31.9,-87.29 -54.99,-51.88 -152.1,-26.72 -213.31,1.67 -45.26,20.99 -82.95,56.1 -117.77,96.1l-22.22 -85.54c40,-18.52 82.95,-33.14 128.87,-43.89 95.58,-22.35 220.54,-29.53 303.3,31.11 42.96,31.48 64.44,81.66 64.44,150.54l0 464.39 -111.1 0 0 -98.88c-58.91,64.26 -145.26,115.54 -234.42,115.54zm43.33 -35.55c95.84,-19.36 132.69,-62.97 191.09,-126.51l0 -347.23c-119.25,25.92 -204.61,58.98 -256.08,109.34 -51.47,50.36 -77.21,112.95 -77.21,187.76 0,57.03 13.33,100.73 40,131.09 26.67,30.37 61.56,53.76 102.21,45.55z"/>
  <path class="fil0" d="M4094.29 940.16c-37.77,0 -73.51,-8.33 -107.21,-24.99 -33.7,-16.67 -60.91,-40.92 -81.65,-72.77 -20.73,-31.85 -31.11,-69.25 -31.11,-112.21l0 -424.34 -66.66 0 0 -28.94 82.21 0c51.85,-75.83 48.02,-142.69 31.13,-250.14l63.31 1.28 1.11 248.86 169.97 0 0 28.94 -169.97 0 0 497.66c0,143.06 188.42,146.96 269.96,-43.32l31.11 67.77c-20,37.03 -47.22,64.99 -81.66,83.88 -34.44,18.89 -71.28,28.33 -110.54,28.33z"/>
  <path class="fil0" d="M8806.47 940.16c-37.77,0 -73.51,-8.33 -107.21,-24.99 -33.7,-16.67 -60.92,-40.92 -81.65,-72.77 -20.74,-31.85 -31.11,-69.25 -31.11,-112.21l0 -424.34 -66.66 0 0 -28.94 82.21 0c51.85,-75.83 48.02,-142.69 31.13,-250.14l63.3 1.28 1.11 248.86 169.98 0 0 28.94 -169.98 0 0 497.66c0,143.06 188.42,146.96 269.97,-43.32l31.11 67.77c-19.99,37.03 -47.22,64.99 -81.65,83.88 -34.44,18.89 -71.28,28.33 -110.54,28.33z"/>
  <path class="fil0" d="M7135.8 139.15l-267.74 779.91 -111.1 0 -267.75 -779.91 111.1 0 235.52 715.95c73.03,-213.45 137.96,-420.63 222.2,-715.95l77.77 0zm327.74 798.79c-64.43,0 -119.98,-13.89 -166.65,-41.66 -46.66,-27.77 -82.4,-67.21 -107.21,-118.32 -24.81,-51.1 -37.22,-110.35 -37.22,-177.75 0,-68.14 12.41,-128.14 37.22,-179.98 24.81,-51.85 60.55,-91.84 107.21,-119.98 46.66,-28.15 102.21,-42.22 166.65,-42.22 62.22,0 116.65,14.26 163.32,42.78 46.66,28.51 82.58,68.5 107.76,119.98 25.18,51.48 37.77,111.28 37.77,179.43 0,67.4 -12.59,126.65 -37.77,177.75 -25.18,51.11 -61.1,90.55 -107.76,118.32 -46.66,27.77 -101.1,41.66 -163.32,41.66zm0 -15.55c41.48,0 77.59,-14.81 108.32,-44.44 30.74,-29.62 54.26,-69.06 70.55,-118.31 16.3,-49.25 24.44,-102.39 24.44,-159.42 0,-55.55 -8.15,-108.32 -24.44,-158.32 -16.29,-49.99 -39.81,-90.54 -70.55,-121.65 -30.73,-31.11 -66.84,-46.66 -108.32,-46.66 -44.44,0 -82.02,15.37 -112.76,46.1 -30.73,30.74 -53.7,71.11 -68.88,121.1 -15.18,50 -22.77,103.13 -22.77,159.43 0,57.77 7.59,111.09 22.77,159.98 15.18,48.88 38.15,88.14 68.88,117.76 30.74,29.63 68.33,44.44 112.76,44.44zm549.94 268.85c-50.19,-4.15 -103.32,-6.66 -158.87,-20l16.67 -77.77c111.64,58.79 268.4,91.71 375.51,-7.22 50.32,-46.48 57.77,-131.28 57.77,-223.87l0 -56.5 -3.34 0c-28.35,72.58 -124.91,132.05 -202.2,132.05 -42.22,0 -81.84,-11.85 -118.87,-35.55 -37.03,-23.7 -67.03,-60.74 -89.99,-111.1 -22.96,-50.37 -34.44,-113.32 -34.44,-188.87 0,-65.91 12.04,-124.98 36.11,-177.2 24.07,-52.22 56.85,-92.95 98.32,-122.21 41.48,-29.25 87.4,-43.88 137.76,-43.88 59.25,0 118.13,20.74 176.65,62.21l0 -44.44 111.09 0 0 523.27c0,78.51 -20.26,145.57 -50.55,206.64 -68.77,138.67 -201.34,196.84 -351.62,184.42zm116.65 -286.63c94.39,0 174.43,-108.88 174.43,-195.53l0 -353.35c-81.12,-59.11 -163.14,-114.02 -250.53,-27.71 -30,29.63 -52.96,68.51 -68.88,116.65 -15.92,48.14 -23.89,99.99 -23.89,155.54 0,61.47 7.41,115.35 22.22,161.65 14.81,46.29 35.18,81.66 61.1,106.1 25.92,24.44 54.43,36.66 85.54,36.66z"/>
  <path class="fil0" d="M3391.81 935.72c-64.43,0 -115.54,-17.96 -153.31,-53.88 -37.77,-35.92 -56.66,-83.14 -56.66,-141.65 0,-88.13 40.55,-158.13 121.65,-209.97 81.1,-51.85 188.68,-93.32 322.74,-124.43 0,-44.44 -10.74,-78.14 -32.22,-101.1 -46.47,-49.68 -160.66,-27.33 -213.31,1.67 -43.7,24.07 -82.95,56.1 -117.77,96.1l-22.22 -85.54c40,-18.52 82.95,-33.14 128.87,-43.89 95.58,-22.35 220.54,-29.53 303.3,31.11 42.96,31.48 64.43,81.66 64.43,150.54l0 464.39 -111.1 0 0 -98.88c-32.59,35.55 -69.62,63.7 -111.1,84.43 -41.48,20.74 -82.58,31.11 -123.32,31.11zm43.33 -35.55c96.28,0 133.28,-52.15 191.09,-115.05l0 -349.08c-119.24,25.92 -204.61,49.37 -256.08,99.73 -51.47,50.36 -77.21,112.95 -77.21,187.76 0,57.03 13.34,100.73 40,131.09 26.66,30.37 60.73,45.55 102.21,45.55z"/>
  <path class="fil0" d="M-0 915.73l0 -781.34 280.48 0c112.79,0 200.34,31.53 262.67,94.6 62.33,63.07 93.5,156.94 93.5,281.6 0,92.01 -17.25,168.44 -51.76,229.28 -34.5,60.84 -80.14,105.36 -136.9,133.56 -56.77,28.19 -119.28,42.29 -187.55,42.29l-260.45 0zm210.36 -35.23c67.52,0 124.29,-11.69 170.29,-35.06 46.01,-23.37 81.62,-45.1 106.85,-102.23 25.23,-57.14 37.84,-134.68 37.84,-232.62 0,-125.4 -23.93,-216.85 -71.79,-274.36 -47.86,-57.5 -118.3,-65.59 -219.95,-65.59l-117.98 0 -4.32 709.87 99.06 0zm543.15 35.23l0 -643.33 111.3 0 0 321.66 1.12 0c25.23,-103.88 63.62,-174.55 111.85,-233.54 48.23,-58.99 103.14,-88.48 164.72,-88.48 20.78,0 41.92,3.71 63.44,11.13l-15.58 77.91c-28.2,-14.1 -56.02,-21.15 -83.48,-21.15 -54.91,0 -102.77,27.09 -143.58,81.25 -40.81,54.17 -98.49,168.13 -98.49,217.4l0 277.14 -111.3 0zm1176.47 18.92c-17.07,0 -31.35,-5.75 -42.85,-17.25 -11.5,-11.5 -17.25,-25.79 -17.25,-42.85 0,-17.06 5.75,-31.35 17.25,-42.85 11.5,-11.5 25.79,-17.25 42.85,-17.25 17.07,0 31.35,5.75 42.85,17.25 11.5,11.5 17.25,25.79 17.25,42.85 0,16.32 -5.75,30.42 -17.25,42.3 -11.5,11.87 -25.79,17.81 -42.85,17.81z"/>
  <path class="fil0" d="M1426.79 936.5c-64.81,0 -116.22,-18.07 -154.21,-54.2 -38,-36.13 -56.99,-83.63 -56.99,-142.48 0,-88.65 40.79,-159.06 122.36,-211.2 81.58,-52.15 189.79,-93.87 324.63,-125.16 0,-44.7 -10.8,-78.6 -32.41,-101.69 -46.75,-49.97 -161.6,-27.49 -214.55,1.67 -43.95,24.21 -83.44,56.44 -118.46,96.66l-22.35 -86.05c40.23,-18.63 83.44,-33.34 129.63,-44.14 96.14,-22.48 221.84,-29.7 305.08,31.29 43.21,31.66 64.81,82.14 64.81,151.42l0 467.11 -111.75 0 0 -99.46c-32.78,35.76 -70.03,64.07 -111.75,84.93 -41.72,20.86 -83.06,31.29 -124.04,31.29zm43.58 -35.76c96.84,0 134.05,-52.45 192.21,-115.72l0 -351.13c-119.94,26.07 -205.81,49.66 -257.58,100.32 -51.77,50.65 -77.66,113.61 -77.66,188.86 0,57.36 13.41,101.32 40.23,131.86 26.82,30.55 61.09,45.82 102.81,45.82z"/>
 </g>
</svg>
